# xmcd
#
# Track frame offsets:
#	150
#	10912
#	36312
#	51497
#	66015
#	75582
#	90242
#	99967
#	114847
#
# Disc length: 1687 seconds
#
# Revision: 2
# Processed by: cddbd v1.5.1PL0 Copyright (c) Steve Scherf et al.
# Submitted via: EZCDDA 4.3.2
#
DISCID=61069509
DTITLE=Various Artist - Christmas In The Country Volume 2
DYEAR=1900
DGENRE=
TTITLE0=Away In A Manger ... Willie Nelson
TTITLE1=Medley: Hark! The Herald Angels Sing - The First Noel - O Come All Ye 
TTITLE1=Faithful ... Steve Wariner
TTITLE2=Let It Snow! Let It Snow! Let It Snow ... Lee Greenwood
TTITLE3=I'll Be Home For Christmas ... Dolly Porton
TTITLE4=Rickin'Around The Christmas Tree ... Eddie Rabbitt
TTITLE5=Santa Claus Comes By Boat ... Gary Fjellgaard
TTITLE6=Jingle Bell Rock ... Sweethearts Of The Rodeo
TTITLE7=Sweet Baby Jesus ... Larry Gatlin
TTITLE8=Joy To The World ... Vern Gosdin
EXTD=
EXTT0=
EXTT1=
EXTT2=
EXTT3=
EXTT4=
EXTT5=
EXTT6=
EXTT7=
EXTT8=
PLAYORDER=
